<svg xmlns="http://www.w3.org/2000/svg" fill="currentColor" viewBox="0 0 24 24">
  <path d="M24 4.557a9.83 9.83 0 0 1-2.828.775A4.93 4.93 0 0 0 23.337 3a9.868 9.868 0 0 1-3.127 1.195 4.92 4.92 0 0 0-8.384 4.482c-4.09-.205-7.719-2.164-10.148-5.144a4.822 4.822 0 0 0-.664 2.475c0 1.708.869 3.216 2.188 4.099a4.904 4.904 0 0 1-2.228-.616c-.054 2.281 1.582 4.415 3.949 4.89a4.935 4.935 0 0 1-2.224.084c.627 1.956 2.444 3.379 4.6 3.421A9.868 9.868 0 0 1 0 19.54 13.94 13.94 0 0 0 7.548 22c9.142 0 14.307-7.721 13.995-14.646A9.935 9.935 0 0 0 24 4.557z"/>
</svg>
